<svg width="30" height="23" viewBox="0 0 30 23" fill="none" xmlns="http://www.w3.org/2000/svg">
<path d="M24.7627 2.55794C22.9411 1.70877 20.9688 1.09243 18.9144 0.73633C18.8963 0.735754 18.8784 0.739134 18.8619 0.746234C18.8453 0.753333 18.8305 0.763978 18.8185 0.777419C18.572 1.2294 18.2843 1.81834 18.0926 2.27032C15.9135 1.94161 13.6974 1.94161 11.5184 2.27032C11.3266 1.80464 11.039 1.2294 10.7788 0.777419C10.7651 0.750027 10.724 0.73633 10.6829 0.73633C8.62843 1.09243 6.66986 1.70877 4.83455 2.55794C4.82086 2.55794 4.80716 2.57164 4.79346 2.58533C1.06807 8.15973 0.0408419 13.5835 0.547605 18.9524C0.547605 18.9798 0.561302 19.0072 0.588694 19.0209C3.05403 20.8288 5.42349 21.9245 7.76556 22.6504C7.80665 22.6641 7.84774 22.6504 7.86144 22.623C8.40929 21.8697 8.90236 21.0754 9.32694 20.2399C9.35433 20.1851 9.32694 20.1303 9.27216 20.1166C8.49147 19.8153 7.75187 19.4592 7.02596 19.0483C6.97118 19.0209 6.97118 18.9387 7.01227 18.8976C7.16292 18.7881 7.31358 18.6648 7.46424 18.5552C7.49164 18.5278 7.53273 18.5278 7.56012 18.5415C12.2716 20.6919 17.353 20.6919 22.0097 18.5415C22.0371 18.5278 22.0782 18.5278 22.1056 18.5552C22.2563 18.6785 22.4069 18.7881 22.5576 18.9113C22.6124 18.9524 22.6124 19.0346 22.5439 19.062C21.8317 19.4866 21.0784 19.829 20.2977 20.1303C20.2429 20.144 20.2292 20.2125 20.2429 20.2536C20.6812 21.0891 21.1743 21.8834 21.7084 22.6367C21.7495 22.6504 21.7906 22.6641 21.8317 22.6504C24.1874 21.9245 26.5569 20.8288 29.0222 19.0209C29.0496 19.0072 29.0633 18.9798 29.0633 18.9524C29.666 12.748 28.0635 7.36535 24.8175 2.58533C24.8038 2.57164 24.7901 2.55794 24.7627 2.55794ZM10.0392 15.679C8.62843 15.679 7.45055 14.3779 7.45055 12.7754C7.45055 11.1729 8.60104 9.87177 10.0392 9.87177C11.491 9.87177 12.6414 11.1866 12.6278 12.7754C12.6278 14.3779 11.4773 15.679 10.0392 15.679ZM19.5855 15.679C18.1748 15.679 16.9969 14.3779 16.9969 12.7754C16.9969 11.1729 18.1474 9.87177 19.5855 9.87177C21.0373 9.87177 22.1878 11.1866 22.1741 12.7754C22.1741 14.3779 21.0373 15.679 19.5855 15.679Z" fill="white"/>
</svg>
