<svg width="37" height="24" viewBox="0 0 37 24" fill="none" xmlns="http://www.w3.org/2000/svg">
<g filter="url(#filter0_d_0_78)">
<path d="M31.1511 6.31177C31.1511 7.18712 30.8471 7.92873 30.2392 8.53661C29.6314 9.1445 28.8898 9.44844 28.0144 9.44844C27.1877 9.44844 26.4704 9.1445 25.8625 8.53661C25.2546 7.92873 24.9507 7.18712 24.9507 6.31177C24.9507 5.48505 25.2546 4.76775 25.8625 4.15987C26.4704 3.55199 27.1877 3.24805 28.0144 3.24805C28.8898 3.24805 29.6314 3.55199 30.2392 4.15987C30.8471 4.76775 31.1511 5.48505 31.1511 6.31177ZM29.911 11.5639L26.1178 14.7735C26.1664 14.968 26.1908 15.2355 26.1908 15.5759C26.1908 16.9375 25.7045 18.1047 24.7318 19.0773C23.7592 20.0499 22.5921 20.5362 21.2304 20.5362C20.0633 20.5362 19.0299 20.1715 18.1303 19.442C17.2306 18.7125 16.6592 17.7886 16.416 16.6701L7.07897 13.5334C6.25225 14.117 5.3769 14.4087 4.45292 14.4087C3.23716 14.4087 2.20376 13.9832 1.35273 13.1322C0.501696 12.2812 0.0761795 11.2478 0.0761795 10.032C0.0761795 8.81624 0.501696 7.78284 1.35273 6.93181C2.20376 6.08077 3.23716 5.65526 4.45292 5.65526C5.47416 5.65526 6.37383 5.98351 7.15192 6.64003C7.93001 7.29654 8.44063 8.1111 8.68378 9.08371L17.6561 12.0745C18.6287 11.1505 19.7715 10.6642 21.0846 10.6156L22.4705 6.53061V6.31177C22.4705 4.75559 23.0176 3.43041 24.1118 2.33623C25.206 1.24204 26.5312 0.694946 28.0873 0.694946C29.5949 0.694946 30.8958 1.24204 31.9899 2.33623C33.0841 3.43041 33.6312 4.75559 33.6312 6.31177C33.6312 7.52753 33.2908 8.60956 32.61 9.55785C31.9292 10.5062 31.0295 11.1748 29.911 11.5639ZM7.15192 8.57309C6.56835 7.50322 5.693 6.96828 4.52587 6.96828C3.65052 6.96828 2.92106 7.27222 2.3375 7.8801C1.75393 8.48798 1.46215 9.20528 1.46215 10.032C1.46215 10.8587 1.75393 11.576 2.3375 12.1839C2.92106 12.7918 3.65052 13.0957 4.52587 13.0957C4.72039 13.0957 5.01218 13.0471 5.40122 12.9498L3.9423 12.4392C3.35874 12.1474 2.96969 11.6854 2.77517 11.0532C2.58065 10.421 2.62928 9.81317 2.92106 9.2296C3.26148 8.64603 3.74778 8.25699 4.37998 8.06247C5.01218 7.86795 5.62006 7.91658 6.20362 8.20836L7.15192 8.57309ZM23.7106 6.31177C23.7106 7.52753 24.124 8.56093 24.9507 9.41196C25.7774 10.263 26.7986 10.6885 28.0144 10.6885C29.2302 10.6885 30.2636 10.263 31.1146 9.41196C31.9656 8.56093 32.3911 7.52753 32.3911 6.31177C32.3911 5.09601 31.9656 4.07477 31.1146 3.24805C30.2636 2.42133 29.2302 2.00797 28.0144 2.00797C26.7986 2.00797 25.7774 2.42133 24.9507 3.24805C24.124 4.07477 23.7106 5.09601 23.7106 6.31177ZM23.7835 16.0136C23.7835 15.0896 23.4553 14.3115 22.7988 13.6793C22.1423 13.0471 21.352 12.731 20.428 12.731C20.0876 12.731 19.8445 12.7553 19.6986 12.8039L21.5952 13.3875C22.1787 13.7279 22.5678 14.2142 22.7623 14.8464C22.9568 15.4786 22.8839 16.0865 22.5435 16.6701C22.2031 17.2536 21.7168 17.6427 21.0846 17.8372C20.4524 18.0317 19.8445 17.9588 19.2609 17.6184L17.2914 16.9618C17.7777 18.518 18.8232 19.2961 20.428 19.2961C21.352 19.2961 22.1423 18.98 22.7988 18.3478C23.4553 17.7156 23.7835 16.9375 23.7835 16.0136Z" fill="white"/>
</g>
<defs>
<filter id="filter0_d_0_78" x="0.0761795" y="0.694946" width="36.555" height="22.8412" filterUnits="userSpaceOnUse" color-interpolation-filters="sRGB">
<feFlood flood-opacity="0" result="BackgroundImageFix"/>
<feColorMatrix in="SourceAlpha" type="matrix" values="0 0 0 0 0 0 0 0 0 0 0 0 0 0 0 0 0 0 127 0" result="hardAlpha"/>
<feOffset dx="2" dy="2"/>
<feGaussianBlur stdDeviation="0.5"/>
<feComposite in2="hardAlpha" operator="out"/>
<feColorMatrix type="matrix" values="0 0 0 0 0 0 0 0 0 0 0 0 0 0 0 0 0 0 0.25 0"/>
<feBlend mode="normal" in2="BackgroundImageFix" result="effect1_dropShadow_0_78"/>
<feBlend mode="normal" in="SourceGraphic" in2="effect1_dropShadow_0_78" result="shape"/>
</filter>
</defs>
</svg>
